<svg width="30" height="29" viewBox="0 0 30 29" fill="none" xmlns="http://www.w3.org/2000/svg">
<g id="magic-wand-01">
<path id="Vector" d="M18.104 16.0014L14.6428 12.9729C14.1711 12.5602 13.9352 12.3538 13.6807 12.2434C13.1965 12.0334 12.6281 12.0334 12.1438 12.2434C11.8894 12.3538 11.6535 12.5602 11.1817 12.9729C10.7099 13.3858 10.474 13.5922 10.3479 13.8148C10.108 14.2386 10.108 14.7359 10.3479 15.1596C10.474 15.3823 10.7099 15.5887 11.1817 16.0014L14.6428 19.03M18.104 16.0014L28.4876 25.0871C28.9594 25.4999 29.1952 25.7063 29.3214 25.929C29.5613 26.3526 29.5613 26.85 29.3214 27.2738C29.1952 27.4963 28.9594 27.7027 28.4876 28.1156C28.0157 28.5284 27.7799 28.7348 27.5255 28.8452C27.0412 29.0551 26.4728 29.0551 25.9886 28.8452C25.7341 28.7348 25.4982 28.5284 25.0265 28.1156L14.6428 19.03M18.104 16.0014L14.6428 19.03L18.104 16.0014Z" fill="black"/>
<path id="Vector_2" d="M23.4596 0L23.9049 1.2032C24.4887 2.78093 24.7806 3.56979 25.3561 4.14526C25.9316 4.72073 26.7203 5.01264 28.2981 5.59644L29.5013 6.04167L28.2981 6.48689C26.7203 7.0707 25.9316 7.36262 25.3561 7.93807C24.7806 8.51354 24.4887 9.3024 23.9049 10.8801L23.4596 12.0833L23.0144 10.8801C22.4306 9.30241 22.1386 8.51354 21.5632 7.93807C20.9877 7.3626 20.1989 7.0707 18.6212 6.48689L17.418 6.04167L18.6212 5.59644C20.1989 5.01264 20.9877 4.72073 21.5632 4.14526C22.1386 3.56979 22.4306 2.78093 23.0144 1.2032L23.4596 0Z" fill="black"/>
<path id="Vector_3" d="M5.33333 2.41406L5.68952 3.37662C6.15656 4.6388 6.39009 5.2699 6.85047 5.73028C7.31083 6.19064 7.94193 6.42417 9.20411 6.89121L10.1667 7.2474L9.20411 7.60358C7.94193 8.07063 7.31083 8.30416 6.85045 8.76453C6.39009 9.22489 6.15656 9.85599 5.68952 11.1182L5.33333 12.0807L4.97715 11.1182C4.5101 9.85599 4.27657 9.22489 3.8162 8.76453C3.35584 8.30416 2.72474 8.07063 1.46256 7.60358L0.5 7.2474L1.46256 6.89121C2.72474 6.42417 3.35584 6.19064 3.8162 5.73026C4.27657 5.2699 4.5101 4.6388 4.97715 3.37662L5.33333 2.41406Z" fill="black"/>
</g>
</svg>
