<svg width="1034" height="745" viewBox="0 0 1034 745" fill="none" xmlns="http://www.w3.org/2000/svg">
<path d="M0 7C0 3.13401 3.13401 0 7 0H66C69.866 0 73 3.13401 73 7V8C73 11.866 69.866 15 66 15H7C3.13401 15 0 11.866 0 8V7Z" fill="url(#paint0_linear_562_3190)"/>
<path d="M0 28C0 24.134 3.13401 21 7 21H113C116.866 21 120 24.134 120 28V30C120 33.866 116.866 37 113 37H7C3.13401 37 0 33.866 0 30V28Z" fill="url(#paint1_linear_562_3190)"/>
<path d="M0 114C0 110.134 3.13401 107 7 107H217C220.866 107 224 110.134 224 114V125C224 128.866 220.866 132 217 132H7C3.13401 132 0 128.866 0 125V114Z" fill="url(#paint2_linear_562_3190)"/>
<path d="M0 148C0 144.134 3.13401 141 7 141H345C348.866 141 352 144.134 352 148V149C352 152.866 348.866 156 345 156H7C3.13401 156 0 152.866 0 149V148Z" fill="url(#paint3_linear_562_3190)"/>
<path d="M923 127C923 123.134 926.134 120 930 120H1027C1030.87 120 1034 123.134 1034 127V128C1034 131.866 1030.87 135 1027 135H930C926.134 135 923 131.866 923 128V127Z" fill="url(#paint4_linear_562_3190)"/>
<path d="M53 221C53 218.239 55.2386 216 58 216H115C117.761 216 120 218.239 120 221C120 223.761 117.761 226 115 226H58C55.2386 226 53 223.761 53 221Z" fill="url(#paint5_linear_562_3190)"/>
<path d="M97 277C97 274.239 99.2386 272 102 272H159C161.761 272 164 274.239 164 277C164 279.761 161.761 282 159 282H102C99.2386 282 97 279.761 97 277Z" fill="url(#paint6_linear_562_3190)"/>
<path d="M212 277C212 274.239 214.239 272 217 272H274C276.761 272 279 274.239 279 277C279 279.761 276.761 282 274 282H217C214.239 282 212 279.761 212 277Z" fill="url(#paint7_linear_562_3190)"/>
<path d="M488 277C488 274.239 490.239 272 493 272H566C568.761 272 571 274.239 571 277C571 279.761 568.761 282 566 282H493C490.239 282 488 279.761 488 277Z" fill="url(#paint8_linear_562_3190)"/>
<path d="M650 277C650 274.239 652.239 272 655 272H768C770.761 272 773 274.239 773 277C773 279.761 770.761 282 768 282H655C652.239 282 650 279.761 650 277Z" fill="url(#paint9_linear_562_3190)"/>
<path d="M878 277C878 274.239 880.239 272 883 272H896C898.761 272 901 274.239 901 277C901 279.761 898.761 282 896 282H883C880.239 282 878 279.761 878 277Z" fill="url(#paint10_linear_562_3190)"/>
<path d="M967 277C967 274.239 969.239 272 972 272H1012C1014.76 272 1017 274.239 1017 277C1017 279.761 1014.76 282 1012 282H972C969.239 282 967 279.761 967 277Z" fill="url(#paint11_linear_562_3190)"/>
<path d="M97 341C97 338.239 99.2386 336 102 336H159C161.761 336 164 338.239 164 341C164 343.761 161.761 346 159 346H102C99.2386 346 97 343.761 97 341Z" fill="url(#paint12_linear_562_3190)"/>
<path d="M212 341C212 338.239 214.239 336 217 336H274C276.761 336 279 338.239 279 341C279 343.761 276.761 346 274 346H217C214.239 346 212 343.761 212 341Z" fill="url(#paint13_linear_562_3190)"/>
<path d="M488 341C488 338.239 490.239 336 493 336H566C568.761 336 571 338.239 571 341C571 343.761 568.761 346 566 346H493C490.239 346 488 343.761 488 341Z" fill="url(#paint14_linear_562_3190)"/>
<path d="M650 341C650 338.239 652.239 336 655 336H768C770.761 336 773 338.239 773 341C773 343.761 770.761 346 768 346H655C652.239 346 650 343.761 650 341Z" fill="url(#paint15_linear_562_3190)"/>
<path d="M878 341C878 338.239 880.239 336 883 336H896C898.761 336 901 338.239 901 341C901 343.761 898.761 346 896 346H883C880.239 346 878 343.761 878 341Z" fill="url(#paint16_linear_562_3190)"/>
<path d="M967 341C967 338.239 969.239 336 972 336H1012C1014.76 336 1017 338.239 1017 341C1017 343.761 1014.76 346 1012 346H972C969.239 346 967 343.761 967 341Z" fill="url(#paint17_linear_562_3190)"/>
<path d="M97 405C97 402.239 99.2386 400 102 400H159C161.761 400 164 402.239 164 405C164 407.761 161.761 410 159 410H102C99.2386 410 97 407.761 97 405Z" fill="url(#paint18_linear_562_3190)"/>
<path d="M212 405C212 402.239 214.239 400 217 400H274C276.761 400 279 402.239 279 405C279 407.761 276.761 410 274 410H217C214.239 410 212 407.761 212 405Z" fill="url(#paint19_linear_562_3190)"/>
<path d="M488 405C488 402.239 490.239 400 493 400H566C568.761 400 571 402.239 571 405C571 407.761 568.761 410 566 410H493C490.239 410 488 407.761 488 405Z" fill="url(#paint20_linear_562_3190)"/>
<path d="M650 405C650 402.239 652.239 400 655 400H768C770.761 400 773 402.239 773 405C773 407.761 770.761 410 768 410H655C652.239 410 650 407.761 650 405Z" fill="url(#paint21_linear_562_3190)"/>
<path d="M878 405C878 402.239 880.239 400 883 400H896C898.761 400 901 402.239 901 405C901 407.761 898.761 410 896 410H883C880.239 410 878 407.761 878 405Z" fill="url(#paint22_linear_562_3190)"/>
<path d="M967 405C967 402.239 969.239 400 972 400H1012C1014.76 400 1017 402.239 1017 405C1017 407.761 1014.76 410 1012 410H972C969.239 410 967 407.761 967 405Z" fill="url(#paint23_linear_562_3190)"/>
<path d="M97 469C97 466.239 99.2386 464 102 464H159C161.761 464 164 466.239 164 469C164 471.761 161.761 474 159 474H102C99.2386 474 97 471.761 97 469Z" fill="url(#paint24_linear_562_3190)"/>
<path d="M212 469C212 466.239 214.239 464 217 464H274C276.761 464 279 466.239 279 469C279 471.761 276.761 474 274 474H217C214.239 474 212 471.761 212 469Z" fill="url(#paint25_linear_562_3190)"/>
<path d="M488 469C488 466.239 490.239 464 493 464H566C568.761 464 571 466.239 571 469C571 471.761 568.761 474 566 474H493C490.239 474 488 471.761 488 469Z" fill="url(#paint26_linear_562_3190)"/>
<path d="M650 469C650 466.239 652.239 464 655 464H768C770.761 464 773 466.239 773 469C773 471.761 770.761 474 768 474H655C652.239 474 650 471.761 650 469Z" fill="url(#paint27_linear_562_3190)"/>
<path d="M878 469C878 466.239 880.239 464 883 464H896C898.761 464 901 466.239 901 469C901 471.761 898.761 474 896 474H883C880.239 474 878 471.761 878 469Z" fill="url(#paint28_linear_562_3190)"/>
<path d="M967 469C967 466.239 969.239 464 972 464H1012C1014.76 464 1017 466.239 1017 469C1017 471.761 1014.76 474 1012 474H972C969.239 474 967 471.761 967 469Z" fill="url(#paint29_linear_562_3190)"/>
<path d="M97 533C97 530.239 99.2386 528 102 528H159C161.761 528 164 530.239 164 533C164 535.761 161.761 538 159 538H102C99.2386 538 97 535.761 97 533Z" fill="url(#paint30_linear_562_3190)"/>
<path d="M212 533C212 530.239 214.239 528 217 528H274C276.761 528 279 530.239 279 533C279 535.761 276.761 538 274 538H217C214.239 538 212 535.761 212 533Z" fill="url(#paint31_linear_562_3190)"/>
<path d="M488 533C488 530.239 490.239 528 493 528H566C568.761 528 571 530.239 571 533C571 535.761 568.761 538 566 538H493C490.239 538 488 535.761 488 533Z" fill="url(#paint32_linear_562_3190)"/>
<path d="M650 533C650 530.239 652.239 528 655 528H768C770.761 528 773 530.239 773 533C773 535.761 770.761 538 768 538H655C652.239 538 650 535.761 650 533Z" fill="url(#paint33_linear_562_3190)"/>
<path d="M878 533C878 530.239 880.239 528 883 528H896C898.761 528 901 530.239 901 533C901 535.761 898.761 538 896 538H883C880.239 538 878 535.761 878 533Z" fill="url(#paint34_linear_562_3190)"/>
<path d="M967 533C967 530.239 969.239 528 972 528H1012C1014.76 528 1017 530.239 1017 533C1017 535.761 1014.76 538 1012 538H972C969.239 538 967 535.761 967 533Z" fill="url(#paint35_linear_562_3190)"/>
<path d="M97 597C97 594.239 99.2386 592 102 592H159C161.761 592 164 594.239 164 597C164 599.761 161.761 602 159 602H102C99.2386 602 97 599.761 97 597Z" fill="url(#paint36_linear_562_3190)"/>
<path d="M212 597C212 594.239 214.239 592 217 592H274C276.761 592 279 594.239 279 597C279 599.761 276.761 602 274 602H217C214.239 602 212 599.761 212 597Z" fill="url(#paint37_linear_562_3190)"/>
<path d="M488 597C488 594.239 490.239 592 493 592H566C568.761 592 571 594.239 571 597C571 599.761 568.761 602 566 602H493C490.239 602 488 599.761 488 597Z" fill="url(#paint38_linear_562_3190)"/>
<path d="M650 597C650 594.239 652.239 592 655 592H768C770.761 592 773 594.239 773 597C773 599.761 770.761 602 768 602H655C652.239 602 650 599.761 650 597Z" fill="url(#paint39_linear_562_3190)"/>
<path d="M878 597C878 594.239 880.239 592 883 592H896C898.761 592 901 594.239 901 597C901 599.761 898.761 602 896 602H883C880.239 602 878 599.761 878 597Z" fill="url(#paint40_linear_562_3190)"/>
<path d="M967 597C967 594.239 969.239 592 972 592H1012C1014.76 592 1017 594.239 1017 597C1017 599.761 1014.76 602 1012 602H972C969.239 602 967 599.761 967 597Z" fill="url(#paint41_linear_562_3190)"/>
<path d="M97 663C97 660.239 99.2386 658 102 658H159C161.761 658 164 660.239 164 663C164 665.761 161.761 668 159 668H102C99.2386 668 97 665.761 97 663Z" fill="url(#paint42_linear_562_3190)"/>
<path d="M212 663C212 660.239 214.239 658 217 658H274C276.761 658 279 660.239 279 663C279 665.761 276.761 668 274 668H217C214.239 668 212 665.761 212 663Z" fill="url(#paint43_linear_562_3190)"/>
<path d="M488 663C488 660.239 490.239 658 493 658H566C568.761 658 571 660.239 571 663C571 665.761 568.761 668 566 668H493C490.239 668 488 665.761 488 663Z" fill="url(#paint44_linear_562_3190)"/>
<path d="M650 663C650 660.239 652.239 658 655 658H768C770.761 658 773 660.239 773 663C773 665.761 770.761 668 768 668H655C652.239 668 650 665.761 650 663Z" fill="url(#paint45_linear_562_3190)"/>
<path d="M878 663C878 660.239 880.239 658 883 658H896C898.761 658 901 660.239 901 663C901 665.761 898.761 668 896 668H883C880.239 668 878 665.761 878 663Z" fill="url(#paint46_linear_562_3190)"/>
<path d="M967 663C967 660.239 969.239 658 972 658H1012C1014.76 658 1017 660.239 1017 663C1017 665.761 1014.76 668 1012 668H972C969.239 668 967 665.761 967 663Z" fill="url(#paint47_linear_562_3190)"/>
<path d="M97 727C97 724.239 99.2386 722 102 722H159C161.761 722 164 724.239 164 727C164 729.761 161.761 732 159 732H102C99.2386 732 97 729.761 97 727Z" fill="url(#paint48_linear_562_3190)"/>
<path d="M212 727C212 724.239 214.239 722 217 722H274C276.761 722 279 724.239 279 727C279 729.761 276.761 732 274 732H217C214.239 732 212 729.761 212 727Z" fill="url(#paint49_linear_562_3190)"/>
<path d="M488 727C488 724.239 490.239 722 493 722H566C568.761 722 571 724.239 571 727C571 729.761 568.761 732 566 732H493C490.239 732 488 729.761 488 727Z" fill="url(#paint50_linear_562_3190)"/>
<path d="M650 727C650 724.239 652.239 722 655 722H768C770.761 722 773 724.239 773 727C773 729.761 770.761 732 768 732H655C652.239 732 650 729.761 650 727Z" fill="url(#paint51_linear_562_3190)"/>
<path d="M878 727C878 724.239 880.239 722 883 722H896C898.761 722 901 724.239 901 727C901 729.761 898.761 732 896 732H883C880.239 732 878 729.761 878 727Z" fill="url(#paint52_linear_562_3190)"/>
<path d="M967 727C967 724.239 969.239 722 972 722H1012C1014.76 722 1017 724.239 1017 727C1017 729.761 1014.76 732 1012 732H972C969.239 732 967 729.761 967 727Z" fill="url(#paint53_linear_562_3190)"/>
<path d="M215 221C215 218.239 217.239 216 220 216H277C279.761 216 282 218.239 282 221C282 223.761 279.761 226 277 226H220C217.239 226 215 223.761 215 221Z" fill="url(#paint54_linear_562_3190)"/>
<path d="M488 221C488 218.239 490.239 216 493 216H510C512.761 216 515 218.239 515 221C515 223.761 512.761 226 510 226H493C490.239 226 488 223.761 488 221Z" fill="url(#paint55_linear_562_3190)"/>
<path d="M650 221C650 218.239 652.239 216 655 216H678C680.761 216 683 218.239 683 221C683 223.761 680.761 226 678 226H655C652.239 226 650 223.761 650 221Z" fill="url(#paint56_linear_562_3190)"/>
<path d="M878 221C878 218.239 880.239 216 883 216H922C924.761 216 927 218.239 927 221C927 223.761 924.761 226 922 226H883C880.239 226 878 223.761 878 221Z" fill="url(#paint57_linear_562_3190)"/>
<path d="M11 220C11 216.134 14.134 213 18 213H24C27.866 213 31 216.134 31 220V226C31 229.866 27.866 233 24 233H18C14.134 233 11 229.866 11 226V220Z" fill="url(#paint58_linear_562_3190)"/>
<path d="M11 276C11 272.134 14.134 269 18 269H24C27.866 269 31 272.134 31 276V282C31 285.866 27.866 289 24 289H18C14.134 289 11 285.866 11 282V276Z" fill="url(#paint59_linear_562_3190)"/>
<path d="M51 279C51 269.059 59.0589 261 69 261C78.9411 261 87 269.059 87 279C87 288.941 78.9411 297 69 297C59.0589 297 51 288.941 51 279Z" fill="url(#paint60_linear_562_3190)"/>
<path d="M11 340C11 336.134 14.134 333 18 333H24C27.866 333 31 336.134 31 340V346C31 349.866 27.866 353 24 353H18C14.134 353 11 349.866 11 346V340Z" fill="url(#paint61_linear_562_3190)"/>
<path d="M51 343C51 333.059 59.0589 325 69 325C78.9411 325 87 333.059 87 343C87 352.941 78.9411 361 69 361C59.0589 361 51 352.941 51 343Z" fill="url(#paint62_linear_562_3190)"/>
<path d="M11 404C11 400.134 14.134 397 18 397H24C27.866 397 31 400.134 31 404V410C31 413.866 27.866 417 24 417H18C14.134 417 11 413.866 11 410V404Z" fill="url(#paint63_linear_562_3190)"/>
<path d="M51 407C51 397.059 59.0589 389 69 389C78.9411 389 87 397.059 87 407C87 416.941 78.9411 425 69 425C59.0589 425 51 416.941 51 407Z" fill="url(#paint64_linear_562_3190)"/>
<path d="M11 468C11 464.134 14.134 461 18 461H24C27.866 461 31 464.134 31 468V474C31 477.866 27.866 481 24 481H18C14.134 481 11 477.866 11 474V468Z" fill="url(#paint65_linear_562_3190)"/>
<path d="M51 471C51 461.059 59.0589 453 69 453C78.9411 453 87 461.059 87 471C87 480.941 78.9411 489 69 489C59.0589 489 51 480.941 51 471Z" fill="url(#paint66_linear_562_3190)"/>
<path d="M11 532C11 528.134 14.134 525 18 525H24C27.866 525 31 528.134 31 532V538C31 541.866 27.866 545 24 545H18C14.134 545 11 541.866 11 538V532Z" fill="url(#paint67_linear_562_3190)"/>
<path d="M51 535C51 525.059 59.0589 517 69 517C78.9411 517 87 525.059 87 535C87 544.941 78.9411 553 69 553C59.0589 553 51 544.941 51 535Z" fill="url(#paint68_linear_562_3190)"/>
<path d="M11 596C11 592.134 14.134 589 18 589H24C27.866 589 31 592.134 31 596V602C31 605.866 27.866 609 24 609H18C14.134 609 11 605.866 11 602V596Z" fill="url(#paint69_linear_562_3190)"/>
<path d="M51 599C51 589.059 59.0589 581 69 581C78.9411 581 87 589.059 87 599C87 608.941 78.9411 617 69 617C59.0589 617 51 608.941 51 599Z" fill="url(#paint70_linear_562_3190)"/>
<path d="M11 660C11 656.134 14.134 653 18 653H24C27.866 653 31 656.134 31 660V666C31 669.866 27.866 673 24 673H18C14.134 673 11 669.866 11 666V660Z" fill="url(#paint71_linear_562_3190)"/>
<path d="M51 663C51 653.059 59.0589 645 69 645C78.9411 645 87 653.059 87 663C87 672.941 78.9411 681 69 681C59.0589 681 51 672.941 51 663Z" fill="url(#paint72_linear_562_3190)"/>
<path d="M11 724C11 720.134 14.134 717 18 717H24C27.866 717 31 720.134 31 724V730C31 733.866 27.866 737 24 737H18C14.134 737 11 733.866 11 730V724Z" fill="url(#paint73_linear_562_3190)"/>
<path d="M51 727C51 717.059 59.0589 709 69 709C78.9411 709 87 717.059 87 727C87 736.941 78.9411 745 69 745C59.0589 745 51 736.941 51 727Z" fill="url(#paint74_linear_562_3190)"/>
<defs>
<linearGradient id="paint0_linear_562_3190" x1="0" y1="7.5" x2="73" y2="7.5" gradientUnits="userSpaceOnUse">
<stop stop-color="#E6E6E6"/>
<stop offset="1" stop-color="#D9D9D9"/>
</linearGradient>
<linearGradient id="paint1_linear_562_3190" x1="0" y1="29" x2="120" y2="29" gradientUnits="userSpaceOnUse">
<stop stop-color="#E6E6E6"/>
<stop offset="1" stop-color="#D9D9D9"/>
</linearGradient>
<linearGradient id="paint2_linear_562_3190" x1="0" y1="119.5" x2="224" y2="119.5" gradientUnits="userSpaceOnUse">
<stop stop-color="#E6E6E6"/>
<stop offset="1" stop-color="#D9D9D9"/>
</linearGradient>
<linearGradient id="paint3_linear_562_3190" x1="0" y1="148.5" x2="352" y2="148.5" gradientUnits="userSpaceOnUse">
<stop stop-color="#E6E6E6"/>
<stop offset="1" stop-color="#D9D9D9"/>
</linearGradient>
<linearGradient id="paint4_linear_562_3190" x1="923" y1="127.5" x2="1034" y2="127.5" gradientUnits="userSpaceOnUse">
<stop stop-color="#E6E6E6"/>
<stop offset="1" stop-color="#D9D9D9"/>
</linearGradient>
<linearGradient id="paint5_linear_562_3190" x1="53" y1="221" x2="120" y2="221" gradientUnits="userSpaceOnUse">
<stop stop-color="#E6E6E6"/>
<stop offset="1" stop-color="#D9D9D9"/>
</linearGradient>
<linearGradient id="paint6_linear_562_3190" x1="97" y1="277" x2="164" y2="277" gradientUnits="userSpaceOnUse">
<stop stop-color="#E6E6E6"/>
<stop offset="1" stop-color="#D9D9D9"/>
</linearGradient>
<linearGradient id="paint7_linear_562_3190" x1="212" y1="277" x2="279" y2="277" gradientUnits="userSpaceOnUse">
<stop stop-color="#E6E6E6"/>
<stop offset="1" stop-color="#D9D9D9"/>
</linearGradient>
<linearGradient id="paint8_linear_562_3190" x1="488" y1="277" x2="571" y2="277" gradientUnits="userSpaceOnUse">
<stop stop-color="#E6E6E6"/>
<stop offset="1" stop-color="#D9D9D9"/>
</linearGradient>
<linearGradient id="paint9_linear_562_3190" x1="650" y1="277" x2="773" y2="277" gradientUnits="userSpaceOnUse">
<stop stop-color="#E6E6E6"/>
<stop offset="1" stop-color="#D9D9D9"/>
</linearGradient>
<linearGradient id="paint10_linear_562_3190" x1="878" y1="277" x2="901" y2="277" gradientUnits="userSpaceOnUse">
<stop stop-color="#E6E6E6"/>
<stop offset="1" stop-color="#D9D9D9"/>
</linearGradient>
<linearGradient id="paint11_linear_562_3190" x1="967" y1="277" x2="1017" y2="277" gradientUnits="userSpaceOnUse">
<stop stop-color="#E6E6E6"/>
<stop offset="1" stop-color="#D9D9D9"/>
</linearGradient>
<linearGradient id="paint12_linear_562_3190" x1="97" y1="341" x2="164" y2="341" gradientUnits="userSpaceOnUse">
<stop stop-color="#E6E6E6"/>
<stop offset="1" stop-color="#D9D9D9"/>
</linearGradient>
<linearGradient id="paint13_linear_562_3190" x1="212" y1="341" x2="279" y2="341" gradientUnits="userSpaceOnUse">
<stop stop-color="#E6E6E6"/>
<stop offset="1" stop-color="#D9D9D9"/>
</linearGradient>
<linearGradient id="paint14_linear_562_3190" x1="488" y1="341" x2="571" y2="341" gradientUnits="userSpaceOnUse">
<stop stop-color="#E6E6E6"/>
<stop offset="1" stop-color="#D9D9D9"/>
</linearGradient>
<linearGradient id="paint15_linear_562_3190" x1="650" y1="341" x2="773" y2="341" gradientUnits="userSpaceOnUse">
<stop stop-color="#E6E6E6"/>
<stop offset="1" stop-color="#D9D9D9"/>
</linearGradient>
<linearGradient id="paint16_linear_562_3190" x1="878" y1="341" x2="901" y2="341" gradientUnits="userSpaceOnUse">
<stop stop-color="#E6E6E6"/>
<stop offset="1" stop-color="#D9D9D9"/>
</linearGradient>
<linearGradient id="paint17_linear_562_3190" x1="967" y1="341" x2="1017" y2="341" gradientUnits="userSpaceOnUse">
<stop stop-color="#E6E6E6"/>
<stop offset="1" stop-color="#D9D9D9"/>
</linearGradient>
<linearGradient id="paint18_linear_562_3190" x1="97" y1="405" x2="164" y2="405" gradientUnits="userSpaceOnUse">
<stop stop-color="#E6E6E6"/>
<stop offset="1" stop-color="#D9D9D9"/>
</linearGradient>
<linearGradient id="paint19_linear_562_3190" x1="212" y1="405" x2="279" y2="405" gradientUnits="userSpaceOnUse">
<stop stop-color="#E6E6E6"/>
<stop offset="1" stop-color="#D9D9D9"/>
</linearGradient>
<linearGradient id="paint20_linear_562_3190" x1="488" y1="405" x2="571" y2="405" gradientUnits="userSpaceOnUse">
<stop stop-color="#E6E6E6"/>
<stop offset="1" stop-color="#D9D9D9"/>
</linearGradient>
<linearGradient id="paint21_linear_562_3190" x1="650" y1="405" x2="773" y2="405" gradientUnits="userSpaceOnUse">
<stop stop-color="#E6E6E6"/>
<stop offset="1" stop-color="#D9D9D9"/>
</linearGradient>
<linearGradient id="paint22_linear_562_3190" x1="878" y1="405" x2="901" y2="405" gradientUnits="userSpaceOnUse">
<stop stop-color="#E6E6E6"/>
<stop offset="1" stop-color="#D9D9D9"/>
</linearGradient>
<linearGradient id="paint23_linear_562_3190" x1="967" y1="405" x2="1017" y2="405" gradientUnits="userSpaceOnUse">
<stop stop-color="#E6E6E6"/>
<stop offset="1" stop-color="#D9D9D9"/>
</linearGradient>
<linearGradient id="paint24_linear_562_3190" x1="97" y1="469" x2="164" y2="469" gradientUnits="userSpaceOnUse">
<stop stop-color="#E6E6E6"/>
<stop offset="1" stop-color="#D9D9D9"/>
</linearGradient>
<linearGradient id="paint25_linear_562_3190" x1="212" y1="469" x2="279" y2="469" gradientUnits="userSpaceOnUse">
<stop stop-color="#E6E6E6"/>
<stop offset="1" stop-color="#D9D9D9"/>
</linearGradient>
<linearGradient id="paint26_linear_562_3190" x1="488" y1="469" x2="571" y2="469" gradientUnits="userSpaceOnUse">
<stop stop-color="#E6E6E6"/>
<stop offset="1" stop-color="#D9D9D9"/>
</linearGradient>
<linearGradient id="paint27_linear_562_3190" x1="650" y1="469" x2="773" y2="469" gradientUnits="userSpaceOnUse">
<stop stop-color="#E6E6E6"/>
<stop offset="1" stop-color="#D9D9D9"/>
</linearGradient>
<linearGradient id="paint28_linear_562_3190" x1="878" y1="469" x2="901" y2="469" gradientUnits="userSpaceOnUse">
<stop stop-color="#E6E6E6"/>
<stop offset="1" stop-color="#D9D9D9"/>
</linearGradient>
<linearGradient id="paint29_linear_562_3190" x1="967" y1="469" x2="1017" y2="469" gradientUnits="userSpaceOnUse">
<stop stop-color="#E6E6E6"/>
<stop offset="1" stop-color="#D9D9D9"/>
</linearGradient>
<linearGradient id="paint30_linear_562_3190" x1="97" y1="533" x2="164" y2="533" gradientUnits="userSpaceOnUse">
<stop stop-color="#E6E6E6"/>
<stop offset="1" stop-color="#D9D9D9"/>
</linearGradient>
<linearGradient id="paint31_linear_562_3190" x1="212" y1="533" x2="279" y2="533" gradientUnits="userSpaceOnUse">
<stop stop-color="#E6E6E6"/>
<stop offset="1" stop-color="#D9D9D9"/>
</linearGradient>
<linearGradient id="paint32_linear_562_3190" x1="488" y1="533" x2="571" y2="533" gradientUnits="userSpaceOnUse">
<stop stop-color="#E6E6E6"/>
<stop offset="1" stop-color="#D9D9D9"/>
</linearGradient>
<linearGradient id="paint33_linear_562_3190" x1="650" y1="533" x2="773" y2="533" gradientUnits="userSpaceOnUse">
<stop stop-color="#E6E6E6"/>
<stop offset="1" stop-color="#D9D9D9"/>
</linearGradient>
<linearGradient id="paint34_linear_562_3190" x1="878" y1="533" x2="901" y2="533" gradientUnits="userSpaceOnUse">
<stop stop-color="#E6E6E6"/>
<stop offset="1" stop-color="#D9D9D9"/>
</linearGradient>
<linearGradient id="paint35_linear_562_3190" x1="967" y1="533" x2="1017" y2="533" gradientUnits="userSpaceOnUse">
<stop stop-color="#E6E6E6"/>
<stop offset="1" stop-color="#D9D9D9"/>
</linearGradient>
<linearGradient id="paint36_linear_562_3190" x1="97" y1="597" x2="164" y2="597" gradientUnits="userSpaceOnUse">
<stop stop-color="#E6E6E6"/>
<stop offset="1" stop-color="#D9D9D9"/>
</linearGradient>
<linearGradient id="paint37_linear_562_3190" x1="212" y1="597" x2="279" y2="597" gradientUnits="userSpaceOnUse">
<stop stop-color="#E6E6E6"/>
<stop offset="1" stop-color="#D9D9D9"/>
</linearGradient>
<linearGradient id="paint38_linear_562_3190" x1="488" y1="597" x2="571" y2="597" gradientUnits="userSpaceOnUse">
<stop stop-color="#E6E6E6"/>
<stop offset="1" stop-color="#D9D9D9"/>
</linearGradient>
<linearGradient id="paint39_linear_562_3190" x1="650" y1="597" x2="773" y2="597" gradientUnits="userSpaceOnUse">
<stop stop-color="#E6E6E6"/>
<stop offset="1" stop-color="#D9D9D9"/>
</linearGradient>
<linearGradient id="paint40_linear_562_3190" x1="878" y1="597" x2="901" y2="597" gradientUnits="userSpaceOnUse">
<stop stop-color="#E6E6E6"/>
<stop offset="1" stop-color="#D9D9D9"/>
</linearGradient>
<linearGradient id="paint41_linear_562_3190" x1="967" y1="597" x2="1017" y2="597" gradientUnits="userSpaceOnUse">
<stop stop-color="#E6E6E6"/>
<stop offset="1" stop-color="#D9D9D9"/>
</linearGradient>
<linearGradient id="paint42_linear_562_3190" x1="97" y1="663" x2="164" y2="663" gradientUnits="userSpaceOnUse">
<stop stop-color="#E6E6E6"/>
<stop offset="1" stop-color="#D9D9D9"/>
</linearGradient>
<linearGradient id="paint43_linear_562_3190" x1="212" y1="663" x2="279" y2="663" gradientUnits="userSpaceOnUse">
<stop stop-color="#E6E6E6"/>
<stop offset="1" stop-color="#D9D9D9"/>
</linearGradient>
<linearGradient id="paint44_linear_562_3190" x1="488" y1="663" x2="571" y2="663" gradientUnits="userSpaceOnUse">
<stop stop-color="#E6E6E6"/>
<stop offset="1" stop-color="#D9D9D9"/>
</linearGradient>
<linearGradient id="paint45_linear_562_3190" x1="650" y1="663" x2="773" y2="663" gradientUnits="userSpaceOnUse">
<stop stop-color="#E6E6E6"/>
<stop offset="1" stop-color="#D9D9D9"/>
</linearGradient>
<linearGradient id="paint46_linear_562_3190" x1="878" y1="663" x2="901" y2="663" gradientUnits="userSpaceOnUse">
<stop stop-color="#E6E6E6"/>
<stop offset="1" stop-color="#D9D9D9"/>
</linearGradient>
<linearGradient id="paint47_linear_562_3190" x1="967" y1="663" x2="1017" y2="663" gradientUnits="userSpaceOnUse">
<stop stop-color="#E6E6E6"/>
<stop offset="1" stop-color="#D9D9D9"/>
</linearGradient>
<linearGradient id="paint48_linear_562_3190" x1="97" y1="727" x2="164" y2="727" gradientUnits="userSpaceOnUse">
<stop stop-color="#E6E6E6"/>
<stop offset="1" stop-color="#D9D9D9"/>
</linearGradient>
<linearGradient id="paint49_linear_562_3190" x1="212" y1="727" x2="279" y2="727" gradientUnits="userSpaceOnUse">
<stop stop-color="#E6E6E6"/>
<stop offset="1" stop-color="#D9D9D9"/>
</linearGradient>
<linearGradient id="paint50_linear_562_3190" x1="488" y1="727" x2="571" y2="727" gradientUnits="userSpaceOnUse">
<stop stop-color="#E6E6E6"/>
<stop offset="1" stop-color="#D9D9D9"/>
</linearGradient>
<linearGradient id="paint51_linear_562_3190" x1="650" y1="727" x2="773" y2="727" gradientUnits="userSpaceOnUse">
<stop stop-color="#E6E6E6"/>
<stop offset="1" stop-color="#D9D9D9"/>
</linearGradient>
<linearGradient id="paint52_linear_562_3190" x1="878" y1="727" x2="901" y2="727" gradientUnits="userSpaceOnUse">
<stop stop-color="#E6E6E6"/>
<stop offset="1" stop-color="#D9D9D9"/>
</linearGradient>
<linearGradient id="paint53_linear_562_3190" x1="967" y1="727" x2="1017" y2="727" gradientUnits="userSpaceOnUse">
<stop stop-color="#E6E6E6"/>
<stop offset="1" stop-color="#D9D9D9"/>
</linearGradient>
<linearGradient id="paint54_linear_562_3190" x1="215" y1="221" x2="282" y2="221" gradientUnits="userSpaceOnUse">
<stop stop-color="#E6E6E6"/>
<stop offset="1" stop-color="#D9D9D9"/>
</linearGradient>
<linearGradient id="paint55_linear_562_3190" x1="488" y1="221" x2="515" y2="221" gradientUnits="userSpaceOnUse">
<stop stop-color="#E6E6E6"/>
<stop offset="1" stop-color="#D9D9D9"/>
</linearGradient>
<linearGradient id="paint56_linear_562_3190" x1="650" y1="221" x2="683" y2="221" gradientUnits="userSpaceOnUse">
<stop stop-color="#E6E6E6"/>
<stop offset="1" stop-color="#D9D9D9"/>
</linearGradient>
<linearGradient id="paint57_linear_562_3190" x1="878" y1="221" x2="927" y2="221" gradientUnits="userSpaceOnUse">
<stop stop-color="#E6E6E6"/>
<stop offset="1" stop-color="#D9D9D9"/>
</linearGradient>
<linearGradient id="paint58_linear_562_3190" x1="11" y1="479" x2="87" y2="479" gradientUnits="userSpaceOnUse">
<stop stop-color="#E6E6E6"/>
<stop offset="1" stop-color="#D9D9D9"/>
</linearGradient>
<linearGradient id="paint59_linear_562_3190" x1="11" y1="479" x2="87" y2="479" gradientUnits="userSpaceOnUse">
<stop stop-color="#E6E6E6"/>
<stop offset="1" stop-color="#D9D9D9"/>
</linearGradient>
<linearGradient id="paint60_linear_562_3190" x1="11" y1="479" x2="87" y2="479" gradientUnits="userSpaceOnUse">
<stop stop-color="#E6E6E6"/>
<stop offset="1" stop-color="#D9D9D9"/>
</linearGradient>
<linearGradient id="paint61_linear_562_3190" x1="11" y1="479" x2="87" y2="479" gradientUnits="userSpaceOnUse">
<stop stop-color="#E6E6E6"/>
<stop offset="1" stop-color="#D9D9D9"/>
</linearGradient>
<linearGradient id="paint62_linear_562_3190" x1="11" y1="479" x2="87" y2="479" gradientUnits="userSpaceOnUse">
<stop stop-color="#E6E6E6"/>
<stop offset="1" stop-color="#D9D9D9"/>
</linearGradient>
<linearGradient id="paint63_linear_562_3190" x1="11" y1="479" x2="87" y2="479" gradientUnits="userSpaceOnUse">
<stop stop-color="#E6E6E6"/>
<stop offset="1" stop-color="#D9D9D9"/>
</linearGradient>
<linearGradient id="paint64_linear_562_3190" x1="11" y1="479" x2="87" y2="479" gradientUnits="userSpaceOnUse">
<stop stop-color="#E6E6E6"/>
<stop offset="1" stop-color="#D9D9D9"/>
</linearGradient>
<linearGradient id="paint65_linear_562_3190" x1="11" y1="479" x2="87" y2="479" gradientUnits="userSpaceOnUse">
<stop stop-color="#E6E6E6"/>
<stop offset="1" stop-color="#D9D9D9"/>
</linearGradient>
<linearGradient id="paint66_linear_562_3190" x1="11" y1="479" x2="87" y2="479" gradientUnits="userSpaceOnUse">
<stop stop-color="#E6E6E6"/>
<stop offset="1" stop-color="#D9D9D9"/>
</linearGradient>
<linearGradient id="paint67_linear_562_3190" x1="11" y1="479" x2="87" y2="479" gradientUnits="userSpaceOnUse">
<stop stop-color="#E6E6E6"/>
<stop offset="1" stop-color="#D9D9D9"/>
</linearGradient>
<linearGradient id="paint68_linear_562_3190" x1="11" y1="479" x2="87" y2="479" gradientUnits="userSpaceOnUse">
<stop stop-color="#E6E6E6"/>
<stop offset="1" stop-color="#D9D9D9"/>
</linearGradient>
<linearGradient id="paint69_linear_562_3190" x1="11" y1="479" x2="87" y2="479" gradientUnits="userSpaceOnUse">
<stop stop-color="#E6E6E6"/>
<stop offset="1" stop-color="#D9D9D9"/>
</linearGradient>
<linearGradient id="paint70_linear_562_3190" x1="11" y1="479" x2="87" y2="479" gradientUnits="userSpaceOnUse">
<stop stop-color="#E6E6E6"/>
<stop offset="1" stop-color="#D9D9D9"/>
</linearGradient>
<linearGradient id="paint71_linear_562_3190" x1="11" y1="479" x2="87" y2="479" gradientUnits="userSpaceOnUse">
<stop stop-color="#E6E6E6"/>
<stop offset="1" stop-color="#D9D9D9"/>
</linearGradient>
<linearGradient id="paint72_linear_562_3190" x1="11" y1="479" x2="87" y2="479" gradientUnits="userSpaceOnUse">
<stop stop-color="#E6E6E6"/>
<stop offset="1" stop-color="#D9D9D9"/>
</linearGradient>
<linearGradient id="paint73_linear_562_3190" x1="11" y1="479" x2="87" y2="479" gradientUnits="userSpaceOnUse">
<stop stop-color="#E6E6E6"/>
<stop offset="1" stop-color="#D9D9D9"/>
</linearGradient>
<linearGradient id="paint74_linear_562_3190" x1="11" y1="479" x2="87" y2="479" gradientUnits="userSpaceOnUse">
<stop stop-color="#E6E6E6"/>
<stop offset="1" stop-color="#D9D9D9"/>
</linearGradient>
</defs>
</svg>
