<svg width="20" height="21" viewBox="0 0 20 21" fill="none" xmlns="http://www.w3.org/2000/svg">
<path id="Vector" d="M14.0324 1.35398L19.146 6.46762C20.5525 7.87405 20.1677 10.245 18.3887 11.1346L13.2272 13.7153C13.0414 13.8082 12.8993 13.9702 12.8315 14.1667L11.3064 18.5814C10.9869 19.5062 9.80961 19.7773 9.11777 19.0856L5.8281 15.7958L1.12401 20.5H0L8.48872e-05 19.376L4.70417 14.6719L1.4145 11.3822C0.722682 10.6904 0.993857 9.5131 1.91861 9.19362L6.33341 7.66853C6.52981 7.60068 6.69182 7.45863 6.78475 7.27277L9.36541 2.11133C10.255 0.332306 12.626 -0.0524538 14.0324 1.35398ZM18.0221 7.59155L12.9085 2.47791C12.2692 1.83862 11.1914 2.01352 10.7871 2.82216L8.20647 7.9836C7.92767 8.54116 7.44161 8.96738 6.8524 9.17094L2.83787 10.5577L9.94228 17.6621L11.3292 13.6477C11.5327 13.0584 11.9589 12.5724 12.5164 12.2936L17.6778 9.71284C18.4865 9.30859 18.6614 8.23084 18.0221 7.59155Z" fill="#8E8E8E"/>
</svg>
